<mxfile host="app.diagrams.net" agent="Mozilla/5.0 (Windows NT 10.0; Win64; x64) AppleWebKit/537.36 (KHTML, like Gecko) Chrome/134.0.0.0 Safari/537.36" version="26.1.1">
  <diagram id="C5RBs43oDa-KdzZeNtuy" name="Page-1">
    <mxGraphModel dx="1674" dy="784" grid="1" gridSize="10" guides="1" tooltips="1" connect="1" arrows="1" fold="1" page="1" pageScale="1" pageWidth="827" pageHeight="1169" math="0" shadow="0">
      <root>
        <mxCell id="WIyWlLk6GJQsqaUBKTNV-0" />
        <mxCell id="WIyWlLk6GJQsqaUBKTNV-1" parent="WIyWlLk6GJQsqaUBKTNV-0" />
        <mxCell id="GQkD6B1lI_t8OA1kjlGG-0" value="&lt;u&gt;PlayerID&lt;/u&gt;" style="rounded=0;whiteSpace=wrap;html=1;" parent="WIyWlLk6GJQsqaUBKTNV-1" vertex="1">
          <mxGeometry x="60" y="90" width="100" height="20" as="geometry" />
        </mxCell>
        <mxCell id="GQkD6B1lI_t8OA1kjlGG-1" value="Short Name" style="rounded=0;whiteSpace=wrap;html=1;" parent="WIyWlLk6GJQsqaUBKTNV-1" vertex="1">
          <mxGeometry x="160" y="90" width="100" height="20" as="geometry" />
        </mxCell>
        <mxCell id="GQkD6B1lI_t8OA1kjlGG-2" value="Full Name" style="rounded=0;whiteSpace=wrap;html=1;" parent="WIyWlLk6GJQsqaUBKTNV-1" vertex="1">
          <mxGeometry x="260" y="90" width="100" height="20" as="geometry" />
        </mxCell>
        <mxCell id="GQkD6B1lI_t8OA1kjlGG-3" value="Height" style="rounded=0;whiteSpace=wrap;html=1;" parent="WIyWlLk6GJQsqaUBKTNV-1" vertex="1">
          <mxGeometry x="360" y="90" width="100" height="20" as="geometry" />
        </mxCell>
        <mxCell id="GQkD6B1lI_t8OA1kjlGG-4" value="Weight" style="rounded=0;whiteSpace=wrap;html=1;" parent="WIyWlLk6GJQsqaUBKTNV-1" vertex="1">
          <mxGeometry x="460" y="90" width="100" height="20" as="geometry" />
        </mxCell>
        <mxCell id="GQkD6B1lI_t8OA1kjlGG-5" value="Age" style="rounded=0;whiteSpace=wrap;html=1;" parent="WIyWlLk6GJQsqaUBKTNV-1" vertex="1">
          <mxGeometry x="560" y="90" width="100" height="20" as="geometry" />
        </mxCell>
        <mxCell id="GQkD6B1lI_t8OA1kjlGG-6" value="Position" style="rounded=0;whiteSpace=wrap;html=1;" parent="WIyWlLk6GJQsqaUBKTNV-1" vertex="1">
          <mxGeometry x="660" y="90" width="100" height="20" as="geometry" />
        </mxCell>
        <mxCell id="GQkD6B1lI_t8OA1kjlGG-7" value="Nationality" style="rounded=0;whiteSpace=wrap;html=1;" parent="WIyWlLk6GJQsqaUBKTNV-1" vertex="1">
          <mxGeometry x="760" y="90" width="100" height="20" as="geometry" />
        </mxCell>
        <mxCell id="GQkD6B1lI_t8OA1kjlGG-10" value="Player" style="text;html=1;align=center;verticalAlign=middle;whiteSpace=wrap;rounded=0;" parent="WIyWlLk6GJQsqaUBKTNV-1" vertex="1">
          <mxGeometry x="50" y="60" width="60" height="30" as="geometry" />
        </mxCell>
        <mxCell id="GQkD6B1lI_t8OA1kjlGG-11" value="&lt;u&gt;TeamID&lt;/u&gt;" style="rounded=0;whiteSpace=wrap;html=1;" parent="WIyWlLk6GJQsqaUBKTNV-1" vertex="1">
          <mxGeometry x="60" y="170" width="100" height="20" as="geometry" />
        </mxCell>
        <mxCell id="GQkD6B1lI_t8OA1kjlGG-12" value="Name" style="rounded=0;whiteSpace=wrap;html=1;" parent="WIyWlLk6GJQsqaUBKTNV-1" vertex="1">
          <mxGeometry x="160" y="170" width="100" height="20" as="geometry" />
        </mxCell>
        <mxCell id="GQkD6B1lI_t8OA1kjlGG-13" value="Points" style="rounded=0;whiteSpace=wrap;html=1;" parent="WIyWlLk6GJQsqaUBKTNV-1" vertex="1">
          <mxGeometry x="260" y="170" width="100" height="20" as="geometry" />
        </mxCell>
        <mxCell id="GQkD6B1lI_t8OA1kjlGG-14" value="Team" style="text;html=1;align=center;verticalAlign=middle;whiteSpace=wrap;rounded=0;" parent="WIyWlLk6GJQsqaUBKTNV-1" vertex="1">
          <mxGeometry x="50" y="140" width="60" height="30" as="geometry" />
        </mxCell>
        <mxCell id="GQkD6B1lI_t8OA1kjlGG-15" value="&lt;u&gt;ManagerID&lt;/u&gt;" style="rounded=0;whiteSpace=wrap;html=1;" parent="WIyWlLk6GJQsqaUBKTNV-1" vertex="1">
          <mxGeometry x="60" y="250" width="100" height="20" as="geometry" />
        </mxCell>
        <mxCell id="GQkD6B1lI_t8OA1kjlGG-16" value="Name" style="rounded=0;whiteSpace=wrap;html=1;" parent="WIyWlLk6GJQsqaUBKTNV-1" vertex="1">
          <mxGeometry x="160" y="250" width="100" height="20" as="geometry" />
        </mxCell>
        <mxCell id="GQkD6B1lI_t8OA1kjlGG-17" value="Age" style="rounded=0;whiteSpace=wrap;html=1;" parent="WIyWlLk6GJQsqaUBKTNV-1" vertex="1">
          <mxGeometry x="260" y="250" width="100" height="20" as="geometry" />
        </mxCell>
        <mxCell id="GQkD6B1lI_t8OA1kjlGG-18" value="Manager" style="text;html=1;align=center;verticalAlign=middle;whiteSpace=wrap;rounded=0;" parent="WIyWlLk6GJQsqaUBKTNV-1" vertex="1">
          <mxGeometry x="60" y="220" width="60" height="30" as="geometry" />
        </mxCell>
        <mxCell id="GQkD6B1lI_t8OA1kjlGG-19" value="&lt;u&gt;StadiumID&lt;/u&gt;" style="rounded=0;whiteSpace=wrap;html=1;" parent="WIyWlLk6GJQsqaUBKTNV-1" vertex="1">
          <mxGeometry x="60" y="340" width="100" height="20" as="geometry" />
        </mxCell>
        <mxCell id="GQkD6B1lI_t8OA1kjlGG-20" value="Name" style="rounded=0;whiteSpace=wrap;html=1;" parent="WIyWlLk6GJQsqaUBKTNV-1" vertex="1">
          <mxGeometry x="160" y="340" width="100" height="20" as="geometry" />
        </mxCell>
        <mxCell id="GQkD6B1lI_t8OA1kjlGG-21" value="Capacity" style="rounded=0;whiteSpace=wrap;html=1;" parent="WIyWlLk6GJQsqaUBKTNV-1" vertex="1">
          <mxGeometry x="260" y="340" width="100" height="20" as="geometry" />
        </mxCell>
        <mxCell id="GQkD6B1lI_t8OA1kjlGG-22" value="Year Creation" style="rounded=0;whiteSpace=wrap;html=1;" parent="WIyWlLk6GJQsqaUBKTNV-1" vertex="1">
          <mxGeometry x="360" y="340" width="100" height="20" as="geometry" />
        </mxCell>
        <mxCell id="GQkD6B1lI_t8OA1kjlGG-23" value="Location" style="rounded=0;whiteSpace=wrap;html=1;" parent="WIyWlLk6GJQsqaUBKTNV-1" vertex="1">
          <mxGeometry x="460" y="340" width="100" height="20" as="geometry" />
        </mxCell>
        <mxCell id="GQkD6B1lI_t8OA1kjlGG-24" value="Stadium" style="text;html=1;align=center;verticalAlign=middle;whiteSpace=wrap;rounded=0;" parent="WIyWlLk6GJQsqaUBKTNV-1" vertex="1">
          <mxGeometry x="60" y="310" width="60" height="30" as="geometry" />
        </mxCell>
        <mxCell id="GQkD6B1lI_t8OA1kjlGG-25" value="&lt;u&gt;GameID&lt;/u&gt;" style="rounded=0;whiteSpace=wrap;html=1;" parent="WIyWlLk6GJQsqaUBKTNV-1" vertex="1">
          <mxGeometry x="60" y="430" width="100" height="20" as="geometry" />
        </mxCell>
        <mxCell id="GQkD6B1lI_t8OA1kjlGG-26" value="Result" style="rounded=0;whiteSpace=wrap;html=1;" parent="WIyWlLk6GJQsqaUBKTNV-1" vertex="1">
          <mxGeometry x="160" y="430" width="100" height="20" as="geometry" />
        </mxCell>
        <mxCell id="GQkD6B1lI_t8OA1kjlGG-27" value="ID" style="rounded=0;whiteSpace=wrap;html=1;" parent="WIyWlLk6GJQsqaUBKTNV-1" vertex="1">
          <mxGeometry x="260" y="430" width="100" height="20" as="geometry" />
        </mxCell>
        <mxCell id="GQkD6B1lI_t8OA1kjlGG-28" value="Date" style="rounded=0;whiteSpace=wrap;html=1;" parent="WIyWlLk6GJQsqaUBKTNV-1" vertex="1">
          <mxGeometry x="360" y="430" width="100" height="20" as="geometry" />
        </mxCell>
        <mxCell id="GQkD6B1lI_t8OA1kjlGG-29" value="Game" style="text;html=1;align=center;verticalAlign=middle;whiteSpace=wrap;rounded=0;" parent="WIyWlLk6GJQsqaUBKTNV-1" vertex="1">
          <mxGeometry x="60" y="400" width="60" height="30" as="geometry" />
        </mxCell>
        <mxCell id="GQkD6B1lI_t8OA1kjlGG-30" value="&lt;u&gt;RefereeID&lt;/u&gt;" style="rounded=0;whiteSpace=wrap;html=1;" parent="WIyWlLk6GJQsqaUBKTNV-1" vertex="1">
          <mxGeometry x="60" y="520" width="100" height="20" as="geometry" />
        </mxCell>
        <mxCell id="GQkD6B1lI_t8OA1kjlGG-31" value="Name" style="rounded=0;whiteSpace=wrap;html=1;" parent="WIyWlLk6GJQsqaUBKTNV-1" vertex="1">
          <mxGeometry x="160" y="520" width="100" height="20" as="geometry" />
        </mxCell>
        <mxCell id="GQkD6B1lI_t8OA1kjlGG-32" value="Age" style="rounded=0;whiteSpace=wrap;html=1;" parent="WIyWlLk6GJQsqaUBKTNV-1" vertex="1">
          <mxGeometry x="260" y="520" width="100" height="20" as="geometry" />
        </mxCell>
        <mxCell id="GQkD6B1lI_t8OA1kjlGG-33" value="Referee" style="text;html=1;align=center;verticalAlign=middle;whiteSpace=wrap;rounded=0;" parent="WIyWlLk6GJQsqaUBKTNV-1" vertex="1">
          <mxGeometry x="60" y="490" width="60" height="30" as="geometry" />
        </mxCell>
        <mxCell id="8P2LpijmixkXhMFe35SE-2" style="edgeStyle=orthogonalEdgeStyle;rounded=0;orthogonalLoop=1;jettySize=auto;html=1;exitX=0.5;exitY=1;exitDx=0;exitDy=0;entryX=0.5;entryY=1;entryDx=0;entryDy=0;" edge="1" parent="WIyWlLk6GJQsqaUBKTNV-1" source="8P2LpijmixkXhMFe35SE-0" target="GQkD6B1lI_t8OA1kjlGG-15">
          <mxGeometry relative="1" as="geometry" />
        </mxCell>
        <mxCell id="8P2LpijmixkXhMFe35SE-0" value="ManagerID" style="rounded=0;whiteSpace=wrap;html=1;" vertex="1" parent="WIyWlLk6GJQsqaUBKTNV-1">
          <mxGeometry x="360" y="170" width="100" height="20" as="geometry" />
        </mxCell>
        <mxCell id="8P2LpijmixkXhMFe35SE-3" style="edgeStyle=orthogonalEdgeStyle;rounded=0;orthogonalLoop=1;jettySize=auto;html=1;exitX=0.5;exitY=1;exitDx=0;exitDy=0;entryX=0.5;entryY=1;entryDx=0;entryDy=0;" edge="1" parent="WIyWlLk6GJQsqaUBKTNV-1" source="8P2LpijmixkXhMFe35SE-1" target="GQkD6B1lI_t8OA1kjlGG-19">
          <mxGeometry relative="1" as="geometry">
            <Array as="points">
              <mxPoint x="510" y="210" />
              <mxPoint x="580" y="210" />
              <mxPoint x="580" y="380" />
              <mxPoint x="110" y="380" />
            </Array>
          </mxGeometry>
        </mxCell>
        <mxCell id="8P2LpijmixkXhMFe35SE-1" value="StadiumID" style="rounded=0;whiteSpace=wrap;html=1;" vertex="1" parent="WIyWlLk6GJQsqaUBKTNV-1">
          <mxGeometry x="460" y="170" width="100" height="20" as="geometry" />
        </mxCell>
        <mxCell id="8P2LpijmixkXhMFe35SE-5" style="edgeStyle=orthogonalEdgeStyle;rounded=0;orthogonalLoop=1;jettySize=auto;html=1;exitX=0.5;exitY=1;exitDx=0;exitDy=0;" edge="1" parent="WIyWlLk6GJQsqaUBKTNV-1" source="8P2LpijmixkXhMFe35SE-4" target="GQkD6B1lI_t8OA1kjlGG-11">
          <mxGeometry relative="1" as="geometry" />
        </mxCell>
        <mxCell id="8P2LpijmixkXhMFe35SE-4" value="TeamID" style="rounded=0;whiteSpace=wrap;html=1;" vertex="1" parent="WIyWlLk6GJQsqaUBKTNV-1">
          <mxGeometry x="860" y="90" width="100" height="20" as="geometry" />
        </mxCell>
        <mxCell id="8P2LpijmixkXhMFe35SE-6" value="Roster Category" style="rounded=0;whiteSpace=wrap;html=1;" vertex="1" parent="WIyWlLk6GJQsqaUBKTNV-1">
          <mxGeometry x="960" y="90" width="100" height="20" as="geometry" />
        </mxCell>
        <mxCell id="8P2LpijmixkXhMFe35SE-7" value="Number" style="rounded=0;whiteSpace=wrap;html=1;" vertex="1" parent="WIyWlLk6GJQsqaUBKTNV-1">
          <mxGeometry x="1060" y="90" width="100" height="20" as="geometry" />
        </mxCell>
        <mxCell id="8P2LpijmixkXhMFe35SE-9" style="edgeStyle=orthogonalEdgeStyle;rounded=0;orthogonalLoop=1;jettySize=auto;html=1;exitX=0.5;exitY=0;exitDx=0;exitDy=0;entryX=0.33;entryY=1.05;entryDx=0;entryDy=0;entryPerimeter=0;" edge="1" parent="WIyWlLk6GJQsqaUBKTNV-1" source="8P2LpijmixkXhMFe35SE-8" target="GQkD6B1lI_t8OA1kjlGG-19">
          <mxGeometry relative="1" as="geometry" />
        </mxCell>
        <mxCell id="8P2LpijmixkXhMFe35SE-8" value="StadiumID" style="rounded=0;whiteSpace=wrap;html=1;" vertex="1" parent="WIyWlLk6GJQsqaUBKTNV-1">
          <mxGeometry x="460" y="430" width="100" height="20" as="geometry" />
        </mxCell>
        <mxCell id="8P2LpijmixkXhMFe35SE-11" style="edgeStyle=orthogonalEdgeStyle;rounded=0;orthogonalLoop=1;jettySize=auto;html=1;exitX=0.5;exitY=1;exitDx=0;exitDy=0;entryX=0.75;entryY=0;entryDx=0;entryDy=0;" edge="1" parent="WIyWlLk6GJQsqaUBKTNV-1" source="8P2LpijmixkXhMFe35SE-10" target="GQkD6B1lI_t8OA1kjlGG-30">
          <mxGeometry relative="1" as="geometry" />
        </mxCell>
        <mxCell id="8P2LpijmixkXhMFe35SE-10" value="&lt;u&gt;RefereeID&lt;/u&gt;" style="rounded=0;whiteSpace=wrap;html=1;" vertex="1" parent="WIyWlLk6GJQsqaUBKTNV-1">
          <mxGeometry x="560" y="430" width="100" height="20" as="geometry" />
        </mxCell>
        <mxCell id="8P2LpijmixkXhMFe35SE-12" value="Plays" style="text;html=1;align=center;verticalAlign=middle;whiteSpace=wrap;rounded=0;" vertex="1" parent="WIyWlLk6GJQsqaUBKTNV-1">
          <mxGeometry x="60" y="570" width="60" height="30" as="geometry" />
        </mxCell>
        <mxCell id="8P2LpijmixkXhMFe35SE-16" style="edgeStyle=orthogonalEdgeStyle;rounded=0;orthogonalLoop=1;jettySize=auto;html=1;exitX=0.5;exitY=1;exitDx=0;exitDy=0;entryX=0.5;entryY=1;entryDx=0;entryDy=0;" edge="1" parent="WIyWlLk6GJQsqaUBKTNV-1" source="8P2LpijmixkXhMFe35SE-13" target="GQkD6B1lI_t8OA1kjlGG-11">
          <mxGeometry relative="1" as="geometry">
            <Array as="points">
              <mxPoint x="110" y="670" />
              <mxPoint x="30" y="670" />
              <mxPoint x="30" y="210" />
              <mxPoint x="110" y="210" />
            </Array>
          </mxGeometry>
        </mxCell>
        <mxCell id="8P2LpijmixkXhMFe35SE-13" value="&lt;u&gt;TeamID&lt;/u&gt;" style="rounded=0;whiteSpace=wrap;html=1;" vertex="1" parent="WIyWlLk6GJQsqaUBKTNV-1">
          <mxGeometry x="60" y="600" width="100" height="20" as="geometry" />
        </mxCell>
        <mxCell id="8P2LpijmixkXhMFe35SE-17" style="edgeStyle=orthogonalEdgeStyle;rounded=0;orthogonalLoop=1;jettySize=auto;html=1;exitX=0.5;exitY=1;exitDx=0;exitDy=0;entryX=0.5;entryY=1;entryDx=0;entryDy=0;" edge="1" parent="WIyWlLk6GJQsqaUBKTNV-1" source="8P2LpijmixkXhMFe35SE-14" target="GQkD6B1lI_t8OA1kjlGG-25">
          <mxGeometry relative="1" as="geometry">
            <Array as="points">
              <mxPoint x="210" y="650" />
              <mxPoint x="50" y="650" />
              <mxPoint x="50" y="480" />
              <mxPoint x="110" y="480" />
            </Array>
          </mxGeometry>
        </mxCell>
        <mxCell id="8P2LpijmixkXhMFe35SE-14" value="&lt;u&gt;GameID&lt;/u&gt;" style="rounded=0;whiteSpace=wrap;html=1;" vertex="1" parent="WIyWlLk6GJQsqaUBKTNV-1">
          <mxGeometry x="160" y="600" width="100" height="20" as="geometry" />
        </mxCell>
        <mxCell id="8P2LpijmixkXhMFe35SE-15" value="Condition" style="rounded=0;whiteSpace=wrap;html=1;" vertex="1" parent="WIyWlLk6GJQsqaUBKTNV-1">
          <mxGeometry x="260" y="600" width="100" height="20" as="geometry" />
        </mxCell>
      </root>
    </mxGraphModel>
  </diagram>
</mxfile>
